<svg id="visual" viewBox="0 0 960 540" width="960" height="540" xmlns="http://www.w3.org/2000/svg" xmlns:xlink="http://www.w3.org/1999/xlink" version="1.1"><path d="M0 271L60 299L120 354L180 301L240 340L300 348L360 364L420 341L480 307L540 357L600 295L660 273L720 313L780 278L840 335L900 312L960 335L960 541L900 541L840 541L780 541L720 541L660 541L600 541L540 541L480 541L420 541L360 541L300 541L240 541L180 541L120 541L60 541L0 541Z" fill="#115e59"></path><path d="M0 380L60 433L120 348L180 430L240 346L300 375L360 404L420 372L480 423L540 384L600 363L660 345L720 435L780 412L840 346L900 346L960 396L960 541L900 541L840 541L780 541L720 541L660 541L600 541L540 541L480 541L420 541L360 541L300 541L240 541L180 541L120 541L60 541L0 541Z" fill="#106a63"></path><path d="M0 478L60 456L120 487L180 448L240 476L300 482L360 496L420 486L480 490L540 487L600 465L660 455L720 491L780 454L840 473L900 439L960 426L960 541L900 541L840 541L780 541L720 541L660 541L600 541L540 541L480 541L420 541L360 541L300 541L240 541L180 541L120 541L60 541L0 541Z" fill="#0f766e"></path></svg>